<svg xmlns="http://www.w3.org/2000/svg" fill="none" viewBox="0 0 283 64">
  <path d="M141 16L109 48L77 16H141Z" fill="black" />
  <path
    d="M198.811 44.756c-2.74 0-5.066-.98-6.978-2.94-1.883-1.961-2.825-4.43-2.825-7.409 0-2.979.942-5.448 2.825-7.409 1.912-1.961 4.238-2.941 6.978-2.941 2.465 0 4.512.76 6.139 2.282l4.297-4.297c-2.817-2.817-6.248-4.225-10.293-4.225-4.492 0-8.305 1.52-11.439 4.559-3.134 3.01-4.701 6.98-4.701 11.9s1.567 8.89 4.701 11.928c3.134 3.01 6.947 4.516 11.439 4.516 4.188 0 7.796-1.35 10.822-4.052l-4.241-4.524c-1.655 1.404-3.642 2.106-5.961 2.106zm32.23-27.78c-4.406 0-8.032 1.463-10.879 4.388-2.847 2.925-4.27 6.918-4.27 11.979 0 5.061 1.432 9.054 4.297 11.979 2.865 2.925 6.463 4.388 10.793 4.388 4.33 0 7.928-1.463 10.793-4.388 2.865-2.925 4.297-6.918 4.297-11.979 0-5.061-1.423-9.054-4.27-11.979-2.847-2.925-6.482-4.388-10.808-4.388zm0 28.36c-2.606 0-4.712-.98-6.317-2.94-1.577-1.961-2.366-4.43-2.366-7.409 0-2.979.789-5.448 2.366-7.409 1.605-1.961 3.711-2.941 6.317-2.941 2.606 0 4.693.98 6.262 2.941 1.596 1.961 2.394 4.43 2.394 7.409 0 2.979-.798 5.448-2.394 7.409-1.569 1.961-3.656 2.94-6.262 2.94zM251.07 17.142h-7.846v39.488h7.846V17.142zm28.24 0h-7.846v19.46c0 3.914-.835 6.739-2.506 8.474-1.67 1.706-3.9 2.559-6.689 2.559-2.79 0-5.029-.853-6.718-2.559-1.688-1.735-2.532-4.56-2.532-8.474v-19.46h-7.846v20.324c0 5.643 1.495 9.96 4.484 12.95 2.989 2.991 6.89 4.486 11.704 4.486s8.715-1.495 11.704-4.486c2.989-2.99 4.484-7.307 4.484-12.95V17.142zm15.334 0h-7.846v39.488h7.846V17.142z"
    fill="black"
  />
</svg>
